<svg id="svg" version="1.1" viewBox="0 0 294.44444444444446 300" width="294.44444444444446" height="300" xmlns="http://www.w3.org/2000/svg"><svg xmlns="http://www.w3.org/2000/svg"><defs><clipPath id="clip-1"><rect x="0" y="0" transform="scale(0.15432,0.15432)" width="1908" height="1944" fill="none"/></clipPath></defs><g clip-path="url(#clip-1)" fill="none" fill-rule="nonzero" stroke="none" stroke-width="1" stroke-linecap="butt" stroke-linejoin="miter" stroke-miterlimit="10" stroke-dasharray="" stroke-dashoffset="0" font-family="none" font-weight="none" font-size="none" text-anchor="none" style="mix-blend-mode: normal"><path d="M61.92284,9.90068c4.10602,-0.299 11.20895,-0.06693 15.49259,-0.0658l30.11188,0.00009l38.23735,0.00576c6.01003,0.00278 12.48071,-0.27438 18.43133,0.00049c1.36728,0.06313 2.52315,0.33647 3.77006,0.89881c3.42901,1.54529 5.15586,2.92397 7.00309,6.16707c0.51698,0.90833 1.05401,1.83981 1.39815,2.83025c0.56019,1.61435 0.22377,17.69151 0.22377,21.06512l-0.00154,56.29012l-0.00154,21.46636c0.00154,3.60139 0.04167,7.26806 -0.03704,10.86775c-0.02623,1.1642 -1.0108,3.08827 -1.55556,4.1483c-2.00309,3.89599 -4.55093,6.10309 -8.69753,7.42114c-2.0787,0.62793 -11.56019,0.40278 -14.25586,0.40278l-23.23843,0.00015l-44.85031,0.00062c-7.1267,0.00046 -14.31281,0.21728 -21.43194,0.02207c-1.08287,-0.02963 -1.96157,-0.11312 -2.9537,-0.58765c-3.31358,-1.58488 -6.12639,-4.48673 -7.32222,-7.9858c-0.84923,-2.48457 -0.42238,-12.61929 -0.42253,-15.98287l-0.00077,-21.28256l-0.00031,-49.09769c0.00031,-8.47469 -0.01528,-16.96373 0.01898,-25.43781c0.01836,-1.04969 -0.01867,-1.8216 0.38025,-2.79306c1.95062,-4.75006 4.71713,-6.58023 9.70185,-8.35364zM109.3662,34.90694c-0.1409,5.7375 -0.01914,11.52083 -0.05262,17.25802c-0.00556,0.95093 0.07438,5.82207 -0.06235,6.39969c-0.79799,0.3321 -28.76914,0.11281 -32.34213,0.11173c-0.71219,0.64583 -2.03627,1.49059 -1.32438,2.45571c1.67515,0.91019 10.34012,0.58009 12.83287,0.54059c-0.66096,6.63843 2.69491,16.12546 5.53333,22.13009c2.62253,5.54769 6.60417,10.81219 10.48194,15.53426c0.09815,0.11867 0.19691,0.23673 0.29645,0.35417c-1.89136,0.38102 -2.31852,0.66698 -3.72145,2.07948c1.2392,1.45756 2.1392,2.90062 3.50787,4.26281c-2.25478,0.26605 -3.41404,1.84059 -5.39383,2.74985c-5.43858,2.49784 -11.40926,4.38179 -17.40154,4.81157c-1.96759,0.13194 -7.78025,0.13133 -8.12685,2.7588c0.91821,2.33472 9.8733,1.40432 12.1912,1.47747c3.10231,0.09769 7.48302,-1.72284 10.39136,-2.70849c4.1429,-1.17639 7.55093,-2.68472 11.45401,-4.48688c2.04753,-0.94552 3.6625,-2.62562 5.75077,-3.25201c0.25062,-0.0642 1.80309,0.98395 2.14136,1.20694c3.86682,2.17886 7.52731,4.24321 11.72762,5.76852c1.62006,0.58843 3.6659,0.83796 5.22793,1.46127c6.41049,2.55802 12.18179,2.05787 18.9716,2.0554c0.75216,-0.66003 1.22932,-1.07253 1.89167,-1.82593c-3.36651,-3.67438 -6.53256,-1.94182 -10.86296,-2.55772c-5.39985,-0.76806 -10.52253,-2.56142 -15.41651,-4.92778c-1.6287,-0.77886 -3.61481,-1.53596 -5.06497,-2.61914c1.25262,-1.11867 3.07593,-2.91204 4.15509,-4.16898c-1.62531,-1.44213 -2.30448,-1.60941 -4.4162,-2.04198c1.10216,-1.27346 2.66034,-2.85926 3.66265,-4.14228c3.60062,-4.60895 6.63534,-9.85617 8.99552,-15.20247c0.52577,-1.19105 1.02623,-3.50895 1.55957,-4.86728c1.59753,-4.0679 2.58843,-9.26173 2.25386,-13.6571l-0.0159,-0.1909c4.21312,0.04491 13.33627,1.01775 16.41065,-1.6483c-0.87577,-1.03488 -1.43642,-1.71944 -2.46358,-2.5909l-21.18812,0.0108c-2.73549,-0.00077 -8.72701,-0.15201 -11.24506,0.14969c0.09198,-6.63071 -0.01991,-13.28133 0.01867,-19.91389c0.00509,-0.87608 0.0017,-1.81034 -0.03657,-2.68364c-1.97238,-2.72731 -3.35664,-3.00062 -6.6091,-2.84969c-1.68102,0.49923 -2.59475,1.48565 -3.71188,2.75849z" fill="#2324a5"/><path d="M99.26111,61.67809c9.40972,0.15802 19.2392,0.01373 28.68025,0.01204c-0.08611,0.90216 -1.26481,6.44059 -1.19552,6.61265c0.42778,0.16235 1.08102,0.37361 1.08364,0.92793c0.00617,1.33611 -0.41003,2.93241 -0.74645,4.21296c-0.55694,2.11929 -0.89105,4.20926 -1.45648,6.31265c-1.22608,3.33241 -3.425,7.63318 -5.18781,10.70123c-1.56281,2.49136 -2.97608,4.98981 -5.1412,7.00154c-0.55494,0.51543 -1.1,1.1125 -1.6267,1.66204c-7.12577,-6.74707 -8.50586,-10.47639 -12.07407,-19.22546c-3.31173,-8.12006 -1.64599,-9.88256 -2.33565,-18.21759z" fill="#2324a5"/><path d="M186.30556,117.26188l61.0679,-0.00231l17.20216,-0.01049c2.63117,-0.00062 5.96605,-0.08673 8.50617,0.14136c1.97068,0.17701 4.98148,2.23102 6.33796,3.5858c2.33642,2.33302 3.97377,4.94059 3.96914,8.33287c-0.01389,7.97762 -0.01543,15.96698 -0.01852,23.93889v48.48194l0.00309,24.93056c0.00617,4.0108 0.12963,8.39506 -0.08488,12.37037c-0.08333,1.57099 -1.91667,4.6713 -3.04012,5.80864c-1.56019,1.57716 -5.04167,3.39969 -7.20988,3.84722c-1.85802,0.38117 -5.19907,0.2392 -7.23611,0.23148l-10.4784,-0.01543h-58.78549l-17.12963,0.0108c-2.97222,0.00926 -6.46296,0.12346 -9.37809,-0.11728c-2.03086,-0.16821 -5.15741,-1.69136 -6.73302,-3.03241c-1.92284,-1.6358 -4.11574,-5.46759 -4.55247,-7.90432c-0.30093,-1.68056 -0.16667,-5.69599 -0.16204,-7.59877l0.01698,-14.52315l-0.00772,-47.37037v-15.32145c0,-2.59213 0.1034,-6.11574 -0.05556,-8.63071c2.27315,0.01466 4.54475,0.02901 6.82099,0.02515c6.68519,-0.0108 12.1358,-4.99877 16.25463,-9.78781c4.12037,-4.78935 5.16975,-11.27639 4.6929,-17.39059zM222.91667,199.97685c4.6466,-0.00463 9.99691,-0.14352 14.58488,0.0108l3.88426,10.28086c1.68056,4.52006 2.18827,8.38426 6.14969,11.46914c1.93364,-0.25617 3.15123,-0.60031 4.98611,-1.31481c-2.54012,-4.9429 -3.96142,-11.4213 -6.29012,-16.54938c-0.76235,-1.68056 -1.39043,-4.18364 -2.04321,-5.99691l-13.84568,-37.61265c-0.71759,-1.92593 -1.10494,-3.99074 -1.87191,-5.9213c-1.77006,-4.4591 -2.43981,-9.5784 -8.52778,-9.21698c-1.24537,0.37207 -2.7392,1.97593 -3.34568,3.10046c-0.98302,1.82037 -1.52315,3.94228 -2.28549,5.8716c-1.0571,2.66775 -2.20679,5.30818 -3.16667,8.01343c-0.79167,2.22994 -1.43673,4.49537 -2.18364,6.73611c-0.46759,1.40432 -1.10648,2.75 -1.57099,4.15895c-0.4321,1.30247 -0.76852,2.64043 -1.22994,3.93364c-0.58025,1.625 -1.45216,3.13426 -2.0463,4.75463c-0.62809,1.70988 -1.12346,3.46605 -1.76852,5.16821c-0.71914,1.89969 -1.60494,3.75 -2.2716,5.66358c-0.44753,1.28395 -0.68981,2.63117 -1.15278,3.90895c-0.80093,2.21451 -1.5463,4.50926 -2.40586,6.69753c-0.50926,1.29938 -1.16049,2.5463 -1.62963,3.86111c-0.64352,1.80093 -1.13426,3.65586 -1.73611,5.47068c-0.50463,1.51852 -1.06481,3.06944 -1.74074,4.51852c-0.34568,0.7392 -0.82562,1.41975 -1.12809,2.17747c-0.11728,0.2963 -0.17284,0.56019 -0.08796,0.87654c0.07562,0.27778 0.3858,0.54012 0.63889,0.66975c1.13117,0.58179 4.28549,0.37191 5.46142,-0.04012c1.56173,-0.54784 2.59259,-1.8858 3.24846,-3.34722c0.5679,-1.26543 0.96605,-2.60802 1.5216,-3.88117c0.64815,-1.4892 1.45679,-2.90895 2.07562,-4.40895c0.6713,-1.625 2.39198,-8.16975 3.88117,-8.81944c1.25617,-0.54938 13.47685,-0.23457 15.8966,-0.23302z" fill="#d11d1a"/><path d="M221.29784,159.62037c1.75617,0.17438 3.57562,7.6821 4.03395,9.39352c1.17901,4.39043 2.99228,8.56481 4.46605,12.89043c1.02778,3.02006 1.9784,5.0679 2.60957,8.29784l-2.08333,-0.04321c0.91821,1.86574 1.26235,4.11883 1.94444,6.15278c-3.34259,0.19907 -7.05864,0.10802 -10.4321,0.09722c-3.62963,-0.02778 -7.2608,-0.01235 -10.89043,0.04784c0.8858,-1.95833 1.72685,-3.93364 2.15895,-6.04475c-0.65278,-0.1358 -1.61265,-0.2608 -2.29321,-0.36883c0.48611,-1.83025 1.87037,-5.06019 2.49691,-7.16358c1.10957,-2.18673 1.75617,-7.04321 2.86265,-8.94753c2.57716,-4.43673 3.05864,-9.95679 5.12654,-14.31173z" fill="#d11d1a"/><path d="M0,218.14352c1.01238,-1.14352 0.42088,-5.78858 0.60765,-7.47994c0.73004,-6.60802 3.88188,-13.25617 6.6914,-19.2392c4.25531,-9.22377 10.25389,-17.14352 18.08707,-23.61574c1.64985,-1.30247 3.22747,-3.13889 4.92886,-4.34259c20.37238,-14.40154 46.90849,-19.22006 70.48256,-10.07377c4.0037,1.5537 7.49769,2.56759 11.33904,4.82685c9.41451,5.53704 17.875,12.9892 24.48426,21.69907c5.26605,7.14506 10.12515,17.45833 12.38796,26.10802c0.34167,1.3071 0.72731,2.59105 0.95278,3.91975c0.19954,7.9537 1.4341,15.5679 0.14938,23.5463c-0.36173,2.24537 0.25355,5.45833 -0.54228,7.82407c-2.54522,9.12963 -6.79614,18.03704 -11.82346,26.0571c-0.68056,1.08642 -2.30802,2.38117 -2.91343,3.3966c-2.62269,4.39815 -6.26265,6.93364 -9.80895,10.34259c-10.52747,10.11883 -25.03596,15.72531 -39.24769,18.2037c-1.07515,0.18673 -3.77793,0.02778 -4.525,0.68364h-11.90957c-0.76975,-0.6713 -3.75262,-0.56481 -5.06667,-0.76698c-4.24228,-0.65895 -8.5841,-1.83025 -12.62593,-3.22994c-6.02917,-1.83951 -10.17176,-3.56019 -15.55401,-6.91049c-18.34028,-11.41667 -31.42869,-29.88735 -35.51964,-51.13889c-0.35429,-1.83951 0.61328,-5.77315 -0.57434,-7.33488zM75.18627,249.39198c13.77654,0.0679 25.01373,-11.01852 25.13071,-24.79475c0.11698,-13.77623 -10.9304,-25.05247 -24.70602,-25.21605c-13.84383,-0.16667 -25.18765,10.94753 -25.30525,24.79167c-0.11744,13.84414 11.03596,25.14969 24.88056,25.21914zM35.26235,276.79784c1.57577,1.02778 5.31806,3.67901 6.73225,4.39043c1.17222,-1.2037 1.59506,-2.20679 2.45201,-3.63889c3.20664,-5.35802 6.14892,-10.85031 9.45571,-16.1466c0.95602,-1.53086 1.62531,-3.52932 2.5716,-5.09414c0.34722,-0.64352 0.74028,-1.28549 1.07253,-1.92747c-3.38194,-1.72068 -7.89892,-6.67593 -10.30324,-9.79938c-0.61867,-0.80401 -1.36605,-2.41358 -2.18256,-2.62809l-0.15864,0.11574c-0.80633,0.58333 -1.57886,0.97068 -2.41852,1.46296c-4.41296,2.59105 -9.03225,5.16049 -13.3625,7.86265c-1.89769,1.18519 -9.87685,4.87191 -10.59846,6.57253c0.21435,3.45988 13.67114,16.82407 16.73981,18.83025zM92.9713,194.61728c4.85309,2.12809 9.4588,8.16975 12.41929,12.4321c0.84599,-0.79321 6.18194,-3.93056 7.46389,-4.59568c5.85031,-3.4892 11.91775,-6.8534 17.82639,-10.2608c1.59985,-0.99537 1.79923,-1.65586 0.69012,-3.23611c-4.06235,-5.79167 -8.7338,-10.8287 -14.07716,-15.53086c-1.68056,-1.47994 -6.42948,-4.40123 -8.51404,-5.71759c-0.08966,-0.01543 -0.17948,-0.03086 -0.26929,-0.0463c-1.33256,1.49383 -2.89676,4.52623 -3.96929,6.36728c-2.61759,4.49074 -5.17623,9.02315 -7.87593,13.47068c-1.30123,2.14506 -2.4088,4.84105 -3.69398,7.11728z" fill="#2324a5"/><path d="M74.67361,217.32716c3.07269,-0.28241 5.97515,1.45525 7.17747,4.2963c0.75617,1.78704 0.74676,3.80556 -0.02608,5.58642c-1.00309,2.31019 -3.15664,3.91512 -5.65725,4.21451c-3.07824,0.37037 -6.03966,-1.30247 -7.31111,-4.13117c-0.82963,-1.84414 -0.83164,-3.95525 -0.00571,-5.80247c1.04599,-2.33796 3.27191,-3.92901 5.82269,-4.16358z" fill="#2324a5"/><path d="M208.22222,0h18.70216c0.8642,0.7823 4.34414,0.95163 5.71914,1.37602c5.35802,1.72514 11.65895,3.80124 16.53549,6.52104c3.23765,1.80514 7.92593,4.16985 10.8287,6.38245c5.11728,3.89966 11.12346,9.79812 15.4784,14.60923c5.61728,6.2071 10.02932,14.52392 13.20988,22.18349c0.42284,1.06728 1.40432,2.82654 1.67438,3.83611c1.07562,4.01651 2.0571,7.89429 3.54784,11.78951c0.44136,1.15201 -0.66358,3.74938 0.52623,5.2162v21.71327c-0.86883,1.44259 -1.48611,2.27978 -2.84105,3.26111c-8.4537,0.4591 -17.93364,-0.09738 -26.4784,0.03565c-4.48457,0.06991 -5.95679,-4.97253 -3.26698,-8.75185l-1.22994,-1.24383c-0.27006,-1.41358 -0.23457,-2.32052 -0.1358,-3.74244c0.75617,-1.21651 2.39969,-2.7284 3.57099,-3.55093c5.57099,-0.30293 13.55093,-0.04537 19.3642,-0.02531c-1.64043,-12.40401 -6.47222,-24.16975 -14.02469,-34.14506c-3.26235,-4.26451 -6.59877,-7.92963 -10.61265,-11.51975c-0.95679,-0.85586 -2.8071,-2.00988 -3.90278,-2.83673c-1.37654,-1.03873 -3.25309,-2.63519 -4.66204,-3.49769c-4.93519,-3.02346 -10.58179,-5.88503 -16.15586,-7.47886c-1.96451,-0.56219 -4.2608,-1.53781 -6.24691,-1.9287c-1.60802,-0.36929 -3.4892,-0.36636 -5.08179,-0.70849c-3.82562,-0.82238 -7.51235,-0.62963 -11.3642,-0.91204c-1.96605,-0.14414 -3.29167,-1.07083 -4.46605,-2.62469c-0.3179,-1.87238 -0.14352,-9.9446 -0.11728,-12.25694c0.55556,-0.85903 0.70679,-1.006 1.42901,-1.70077z" fill="#2324a5"/></g></svg></svg>